<svg xmlns="http://www.w3.org/2000/svg" width="1800" height="1120" viewBox="0 0 1800 1120" role="img" aria-labelledby="title desc" xml:lang="zh">
<!-- Generated by tools/architecture/generate_readme_overview.py. -->
<title id="title">Amadeus · 公开架构总览</title><desc id="desc">展示 Host 权限边界、用户界面、委派执行器、有界 AUIP 应用会话与语音呈现。实线代表请求，虚线代表状态或证据回传。</desc>
<defs>
  <linearGradient id="bg" x2="1" y2="1"><stop stop-color="#040e0a"/><stop offset="1" stop-color="#091b13"/></linearGradient>
  <pattern id="grid" width="32" height="32" patternUnits="userSpaceOnUse"><path d="M32 0H0V32" fill="none" stroke="#8bd8af" opacity=".035"/></pattern>
  <marker id="control" viewBox="0 0 10 10" refX="10" refY="5" markerUnits="userSpaceOnUse" markerWidth="13" markerHeight="13" orient="auto"><path d="M0 0L10 5L0 10Z" fill="#72dfad"/></marker>
  <marker id="return" viewBox="0 0 10 10" refX="10" refY="5" markerUnits="userSpaceOnUse" markerWidth="13" markerHeight="13" orient="auto"><path d="M0 0L10 5L0 10Z" fill="#b4dcc7"/></marker>
  <marker id="artifact" viewBox="0 0 10 10" refX="10" refY="5" markerUnits="userSpaceOnUse" markerWidth="13" markerHeight="13" orient="auto"><path d="M0 0L10 5L0 10Z" fill="#e5bc79"/></marker>
  <marker id="planned" viewBox="0 0 10 10" refX="10" refY="5" markerUnits="userSpaceOnUse" markerWidth="11" markerHeight="11" orient="auto-start-reverse"><path d="M0 0L10 5L0 10Z" fill="#a4b9a9"/></marker>
  <style>
    text{font-family:"Segoe UI","Microsoft YaHei",Arial,sans-serif}
    .title{font-size:38px;font-weight:700;fill:#edf8f0}
    .subtitle{font-size:20px;fill:#a5c5b2}
    .column{font-size:17px;letter-spacing:1px;font-weight:700;fill:#89c9a8}
    .card-title{font-size:27px;font-weight:650;fill:#effaf3}
    .body{font-size:23px;fill:#c0d6c9}
    .note{font-size:19px;fill:#a6c5b3}
    .flow{font-size:16px;font-weight:600;fill:#cce7d7;paint-order:stroke;stroke:#081b13;stroke-width:6;stroke-linejoin:round}
    .mini-title{font-size:23px;font-weight:650;fill:#f5e7ce}
    .mini{font-size:20px;fill:#cfccb7}
    .provider-detail{font-size:18px;fill:#cfccb7}
    .footer{font-size:19px;font-weight:600;fill:#c7e5d3}
    .planned-title{font-size:27px;font-weight:650;fill:#d8ddcd}
    #node-user .body,#node-desktop .body,#node-surface .body,#node-headless .body{font-size:21px}
    #node-user .card-title,#node-desktop .card-title,#node-surface .card-title,#node-headless .card-title{font-size:25px}
  </style>
</defs>
<rect width="1800" height="1120" rx="24" fill="url(#bg)"/>
<rect width="1800" height="1120" rx="24" fill="url(#grid)"/>
<text x="48" y="66" class="title" text-anchor="start">Amadeus · 公开架构总览</text>
<text x="48" y="105" class="subtitle" text-anchor="start">Host 持有身份、权限与持久工作状态；对话、执行和角色呈现保持清晰分工。</text>
<path d="M60 130H124" fill="none" stroke="#72dfad" stroke-width="2.5" marker-end="url(#control)"/>
<text x="140" y="136" class="note" text-anchor="start">请求 / 控制</text>
<path d="M480 130H544" fill="none" stroke="#b4dcc7" stroke-width="2.5" marker-end="url(#return)" stroke-dasharray="7 6"/>
<text x="560" y="136" class="note" text-anchor="start">状态 / 结果回传</text>
<path d="M880 130H944" fill="none" stroke="#e5bc79" stroke-width="2.5" marker-end="url(#artifact)"/>
<text x="960" y="136" class="note" text-anchor="start">产物 / 应用动作</text>
<rect x="1370" y="117" width="24" height="18" rx="3" fill="none" stroke="#a4b9a9" stroke-dasharray="4 3"/>
<text x="1406" y="136" class="note" text-anchor="start">规划中的扩展模块</text>
<text x="60" y="160" class="column" text-anchor="start">用户与交互界面</text>
<text x="500" y="160" class="column" text-anchor="start">HOST · 权限与持久状态</text>
<text x="1230" y="160" class="column" text-anchor="start">受限运行组件</text>
<g id="node-host" data-node="host"><rect x="470" y="175" width="650" height="809" rx="22" fill="#0a2017" stroke="#355f49" stroke-width="1.5"/></g>
<text x="500" y="202" class="note" text-anchor="start">Python · FastAPI · 已认证的接口 · 持久存储</text>
<g data-edge="user-desktop" data-from="user" data-to="desktop"><title>输入 / 授权</title>
<path d="M225 305 L225 350" fill="none" stroke="#081b13" stroke-width="8" stroke-linejoin="round"/>
<path class="connector" d="M225 305 L225 350" fill="none" stroke="#72dfad" stroke-width="2.5" stroke-linejoin="round" marker-end="url(#control)"/></g>
<g data-edge="desktop-chat" data-from="desktop" data-to="chat"><title>已认证的 / WebSocket</title>
<path d="M390 418 L438 418 L438 292 L500 292" fill="none" stroke="#081b13" stroke-width="8" stroke-linejoin="round"/>
<path class="connector" d="M390 418 L438 418 L438 292 L500 292" fill="none" stroke="#72dfad" stroke-width="2.5" stroke-linejoin="round" marker-end="url(#control)"/></g>
<g data-edge="chat-models" data-from="chat" data-to="models"><title>模型推理</title>
<path d="M1090 260 L1230 260" fill="none" stroke="#081b13" stroke-width="8" stroke-linejoin="round"/>
<path class="connector" d="M1090 260 L1230 260" fill="none" stroke="#72dfad" stroke-width="2.5" stroke-linejoin="round" marker-end="url(#control)"/></g>
<g data-edge="chat-memory" data-from="chat" data-to="memory"><title>上下文交互</title>
<path d="M1090 334 L1148 334 L1148 412 L1230 412" fill="none" stroke="#081b13" stroke-width="8" stroke-linejoin="round"/>
<path class="connector" d="M1090 334 L1148 334 L1148 412 L1230 412" fill="none" stroke="#a4b9a9" stroke-width="2.5" stroke-linejoin="round" marker-end="url(#planned)" marker-start="url(#planned)" stroke-dasharray="2 5"/></g>
<g data-edge="chat-work" data-from="chat" data-to="work"><title>委派任务</title>
<path d="M795 368 L795 406" fill="none" stroke="#081b13" stroke-width="8" stroke-linejoin="round"/>
<path class="connector" d="M795 368 L795 406" fill="none" stroke="#72dfad" stroke-width="2.5" stroke-linejoin="round" marker-end="url(#control)"/></g>
<g data-edge="chat-voice" data-from="chat" data-to="voice"><title>对话语音</title>
<path d="M500 332 L482 332 L482 876 L500 876" fill="none" stroke="#081b13" stroke-width="8" stroke-linejoin="round"/>
<path class="connector" d="M500 332 L482 332 L482 876 L500 876" fill="none" stroke="#72dfad" stroke-width="2.5" stroke-linejoin="round" marker-end="url(#control)"/></g>
<g data-edge="work-providers" data-from="work" data-to="providers"><title>执行 / 取消</title>
<path d="M1090 484 L1176 484 L1176 548 L1230 548" fill="none" stroke="#081b13" stroke-width="8" stroke-linejoin="round"/>
<path class="connector" d="M1090 484 L1176 484 L1176 548 L1230 548" fill="none" stroke="#72dfad" stroke-width="2.5" stroke-linejoin="round" marker-end="url(#control)"/></g>
<g data-edge="providers-work" data-from="providers" data-to="work"><title>事件 / 结果</title>
<path d="M1230 626 L1144 626 L1144 578 L1090 578" fill="none" stroke="#081b13" stroke-width="8" stroke-linejoin="round"/>
<path class="connector" d="M1230 626 L1144 626 L1144 578 L1090 578" fill="none" stroke="#b4dcc7" stroke-width="2.5" stroke-linejoin="round" marker-end="url(#return)" stroke-dasharray="8 6"/></g>
<g data-edge="work-desktop" data-from="work" data-to="desktop"><title>工作状态 / 投射</title>
<path d="M500 574 L416 574 L416 506 L390 506" fill="none" stroke="#081b13" stroke-width="8" stroke-linejoin="round"/>
<path class="connector" d="M500 574 L416 574 L416 506 L390 506" fill="none" stroke="#b4dcc7" stroke-width="2.5" stroke-linejoin="round" marker-end="url(#return)" stroke-dasharray="8 6"/></g>
<g data-edge="work-auip" data-from="work" data-to="auip"><title>已核验产物</title>
<path d="M795 616 L795 658" fill="none" stroke="#081b13" stroke-width="8" stroke-linejoin="round"/>
<path class="connector" d="M795 616 L795 658" fill="none" stroke="#e5bc79" stroke-width="2.5" stroke-linejoin="round" marker-end="url(#artifact)"/></g>
<g data-edge="headless-host" data-from="headless" data-to="host"><title>认证 API</title>
<path d="M390 864 L470 864" fill="none" stroke="#081b13" stroke-width="8" stroke-linejoin="round"/>
<path class="connector" d="M390 864 L470 864" fill="none" stroke="#72dfad" stroke-width="2.5" stroke-linejoin="round" marker-end="url(#control)"/></g>
<g data-edge="auip-apps" data-from="auip" data-to="apps"><title>挂接 / 动作</title>
<path d="M1090 704 L1160 704 L1160 832 L1230 832" fill="none" stroke="#081b13" stroke-width="8" stroke-linejoin="round"/>
<path class="connector" d="M1090 704 L1160 704 L1160 832 L1230 832" fill="none" stroke="#e5bc79" stroke-width="2.5" stroke-linejoin="round" marker-end="url(#artifact)"/></g>
<g data-edge="apps-auip" data-from="apps" data-to="auip"><title>状态 / 回执</title>
<path d="M1230 910 L1196 910 L1196 760 L1090 760" fill="none" stroke="#081b13" stroke-width="8" stroke-linejoin="round"/>
<path class="connector" d="M1230 910 L1196 910 L1196 760 L1090 760" fill="none" stroke="#b4dcc7" stroke-width="2.5" stroke-linejoin="round" marker-end="url(#return)" stroke-dasharray="8 6"/></g>
<g data-edge="voice-surface" data-from="voice" data-to="surface"><title>播放 / / 渲染事件</title>
<path d="M500 904 L448 904 L448 652 L390 652" fill="none" stroke="#081b13" stroke-width="8" stroke-linejoin="round"/>
<path class="connector" d="M500 904 L448 904 L448 652 L390 652" fill="none" stroke="#72dfad" stroke-width="2.5" stroke-linejoin="round" marker-end="url(#control)"/></g>
<g id="node-user" data-node="user"><rect x="30" y="185" width="360" height="120" rx="16" fill="#0c241a" stroke="#67c599" stroke-width="1.6"/>
<text x="52" y="222" class="card-title" text-anchor="start">用户</text>
<text x="52" y="256" class="body" text-anchor="start">语音 · 文字 · 点击 · 授权</text>
<text x="52" y="289" class="note" text-anchor="start">随时打断、改变目标或接管</text>
</g>
<g id="node-desktop" data-node="desktop"><rect x="30" y="350" width="360" height="180" rx="16" fill="#0c241a" stroke="#456d55" stroke-width="1.6"/>
<text x="52" y="387" class="card-title" text-anchor="start">Electron 桌面界面</text>
<text x="52" y="421" class="body" text-anchor="start">聊天 · 项目 · 草稿</text>
<text x="52" y="453" class="body" text-anchor="start">工作 · 产物 · 设置</text>
<text x="52" y="485" class="body" text-anchor="start">后端状态 · VN Player</text>
<text x="52" y="514" class="note" text-anchor="start">VN Player 仍为实验性功能</text>
</g>
<g id="node-headless" data-node="headless"><rect x="30" y="798" width="360" height="132" rx="16" fill="#0c241a" stroke="#456d55" stroke-width="1.6"/>
<text x="52" y="835" class="card-title" text-anchor="start">无界面 / API 客户端</text>
<text x="52" y="869" class="body" text-anchor="start">无需角色包或本地模型即可启动</text>
<text x="52" y="914" class="note" text-anchor="start">接入同一已认证的 Host 边界</text>
</g>
<g id="node-surface" data-node="surface"><rect x="30" y="570" width="360" height="158" rx="16" fill="#0c241a" stroke="#456d55" stroke-width="1.6"/>
<text x="52" y="607" class="card-title" text-anchor="start">角色呈现界面</text>
<text x="52" y="641" class="body" text-anchor="start">壁纸 · SpriteForge / PixiJS</text>
<text x="52" y="673" class="body" text-anchor="start">字幕 · 口型 · 表情 · 场景行为</text>
<text x="52" y="712" class="note" text-anchor="start">角色包可选，缺包仍可聊天</text>
</g>
<g id="node-chat" data-node="chat"><rect x="500" y="220" width="590" height="148" rx="16" fill="#0c241a" stroke="#67c599" stroke-width="1.6"/>
<text x="522" y="257" class="card-title" text-anchor="start">主对话与轮次控制</text>
<text x="522" y="291" class="body" text-anchor="start">会话 · 模型配置 · 视觉上下文</text>
<text x="522" y="323" class="body" text-anchor="start">生成流生命周期 · 打断轮次</text>
<text x="522" y="352" class="note" text-anchor="start">只负责对话，不直接调用 MCP 工具</text>
</g>
<g id="node-work" data-node="work"><rect x="500" y="406" width="590" height="210" rx="16" fill="#0c241a" stroke="#67c599" stroke-width="1.6"/>
<text x="522" y="443" class="card-title" text-anchor="start">工作控制面</text>
<text x="522" y="477" class="body" text-anchor="start">项目 · 草稿 · 工作项 / 执行尝试</text>
<text x="522" y="509" class="body" text-anchor="start">执行器选择 · 执行与取消</text>
<text x="522" y="541" class="body" text-anchor="start">继续 / 重试 · 权限 · 产物登记</text>
<text x="522" y="573" class="body" text-anchor="start">持久记录 · 差异 · 完成判定 · 恢复</text>
<text x="522" y="600" class="note" text-anchor="start">Host 核验身份和执行事实</text>
</g>
<g id="node-auip" data-node="auip"><rect x="500" y="658" width="590" height="146" rx="16" fill="#201e15" stroke="#cfa566" stroke-width="1.6"/>
<text x="522" y="695" class="card-title" text-anchor="start">AUIP 会话权限</text>
<text x="522" y="729" class="body" text-anchor="start">挂接票据 · 会话身份 · 版本</text>
<text x="522" y="761" class="body" text-anchor="start">动作授权 · 声明状态 · 动作回执</text>
<text x="522" y="788" class="note" text-anchor="start">不授予工作执行或语音权限</text>
</g>
<g id="node-voice" data-node="voice"><rect x="500" y="824" width="590" height="148" rx="16" fill="#0c241a" stroke="#456d55" stroke-width="1.6"/>
<text x="522" y="861" class="card-title" text-anchor="start">语音与角色表现</text>
<text x="522" y="895" class="body" text-anchor="start">唤醒 / 对话识别 · 本地或远程 ASR / TTS</text>
<text x="522" y="927" class="body" text-anchor="start">真实播放 · 嘴型 / 渲染事件</text>
<text x="522" y="956" class="note" text-anchor="start">呈现与执行权限分离</text>
</g>
<g id="node-models" data-node="models"><rect x="1230" y="185" width="510" height="140" rx="16" fill="#0c241a" stroke="#456d55" stroke-width="1.6"/>
<text x="1252" y="222" class="card-title" text-anchor="start">主对话模型端点</text>
<text x="1252" y="256" class="body" text-anchor="start">本地 / 远程 / 混合模型推理</text>
<text x="1252" y="309" class="note" text-anchor="start">远程服务由用户显式配置</text>
</g>
<g id="node-apps" data-node="apps"><rect x="1230" y="790" width="510" height="182" rx="16" fill="#201e15" stroke="#cfa566" stroke-width="1.6"/>
<text x="1252" y="827" class="card-title" text-anchor="start">已挂接的 AUIP 应用</text>
<text x="1252" y="861" class="body" text-anchor="start">已核验的产物入口 · 声明状态 / 事件</text>
<text x="1252" y="893" class="body" text-anchor="start">有界动作 · 应用回执</text>
<text x="1252" y="956" class="note" text-anchor="start">断连状态可见，不是工作执行器</text>
</g>
<g id="node-memory" data-node="memory" data-status="planned"><rect x="1230" y="351" width="510" height="115" rx="12" fill="#14221b" stroke="#a4b9a9" stroke-width="1.5" stroke-dasharray="6 5"/>
<text x="1252" y="388" class="planned-title" text-anchor="start">记忆与人格运行时</text>
<text x="1252" y="420" class="note" text-anchor="start">检索 / 更新 · 生命周期机制待设计</text>
<text x="1252" y="449" class="mini" text-anchor="start">规划中 · 交互接口尚未定型</text>
</g>
<g id="node-providers" data-node="providers"><rect x="1230" y="494" width="510" height="270" rx="16" fill="#231f15" stroke="#cfa566" stroke-width="1.6"/>
<text x="1252" y="531" class="card-title" text-anchor="start">工作执行器</text>
<text x="1252" y="562" class="note" text-anchor="start">各自独立的传输与能力范围</text>
<rect x="1248" y="580" width="146" height="98" rx="9" fill="#30281a" stroke="#9e8454"/>
<text x="1260" y="609" class="mini-title" text-anchor="start">Browser</text>
<text x="1260" y="639" class="provider-detail" text-anchor="start">Playwright</text>
<text x="1260" y="664" class="provider-detail" text-anchor="start">限定会话</text>
<rect x="1412" y="580" width="146" height="98" rx="9" fill="#30281a" stroke="#9e8454"/>
<text x="1424" y="609" class="mini-title" text-anchor="start">Codex</text>
<text x="1424" y="639" class="provider-detail" text-anchor="start">App Server</text>
<text x="1424" y="664" class="provider-detail" text-anchor="start">或 Direct</text>
<rect x="1576" y="580" width="146" height="98" rx="9" fill="#30281a" stroke="#9e8454"/>
<text x="1588" y="609" class="mini-title" text-anchor="start">Pi</text>
<text x="1588" y="639" class="provider-detail" text-anchor="start">原生 RPC</text>
<text x="1588" y="664" class="provider-detail" text-anchor="start">日常任务</text>
<rect x="1248" y="690" width="474" height="32" rx="8" fill="#102c1f" stroke="#456d55"/>
<text x="1485.0" y="713" class="note" text-anchor="middle">MCP / Skills · 仅授予兼容执行器</text>
<text x="1250" y="747" class="mini" text-anchor="start">规划中：Claude CLI 直接接入</text>
</g>
<g data-label="input">
<text x="310" y="334" class="flow" text-anchor="middle">输入 / 授权</text>
</g>
<g data-label="ws">
<text x="440" y="366" class="flow" text-anchor="middle">已认证的</text>
<text x="440" y="386" class="flow" text-anchor="middle">WebSocket</text>
</g>
<g data-label="infer">
<text x="1160" y="236" class="flow" text-anchor="middle">模型推理</text>
</g>
<g data-label="retrieve">
<text x="1160" y="380" class="flow" text-anchor="middle">上下文交互</text>
</g>
<g data-label="delegate">
<text x="730" y="391" class="flow" text-anchor="middle">委派任务</text>
</g>
<g data-label="run">
<text x="1160" y="463" class="flow" text-anchor="middle">执行 / 取消</text>
</g>
<g data-label="results">
<text x="1160" y="653" class="flow" text-anchor="middle">事件 / 结果</text>
</g>
<g data-label="projection">
<text x="440" y="538" class="flow" text-anchor="middle">工作状态</text>
<text x="440" y="558" class="flow" text-anchor="middle">投射</text>
</g>
<g data-label="artifact">
<text x="921" y="645" class="flow" text-anchor="middle">已核验产物</text>
</g>
<g data-label="api">
<text x="430" y="835" class="flow" text-anchor="middle">认证 API</text>
</g>
<g data-label="action">
<text x="1160" y="690" class="flow" text-anchor="middle">挂接 / 动作</text>
</g>
<g data-label="receipts">
<text x="1160" y="940" class="flow" text-anchor="middle">状态 / 回执</text>
</g>
<g data-label="playback">
<text x="440" y="733" class="flow" text-anchor="middle">播放 /</text>
<text x="440" y="753" class="flow" text-anchor="middle">渲染事件</text>
</g>
<rect x="60" y="1010" width="1680" height="64" rx="14" fill="#06140e" stroke="#355f49"/>
<text x="80" y="1048" class="footer" text-anchor="start">主对话 ≠ 工作执行器 ≠ AUIP 应用</text>
<text x="650" y="1048" class="footer" text-anchor="start">MCP / Skills 仅在执行器范围内授权</text>
<text x="1160" y="1048" class="footer" text-anchor="start">身份 · 权限 · 产物由 Host 核验</text>
</svg>
